<svg width="118.54" height="118.54" viewBox="0 0 118.54 118.54" xmlns="http://www.w3.org/2000/svg" xmlns:xlink="http://www.w3.org/1999/xlink" overflow="hidden"><defs></defs><g><path d="M59.3 0C91.95 0 118.56 26.66 118.53 59.35 118.51 91.95 91.86 118.55 59.23 118.54 26.55 118.53-0.03 91.85 0 59.1 0.03 26.57 26.71 0 59.3 0ZM109.91 59.27C110.08 31.51 87.18 8.66 59.38 8.59 31.55 8.52 8.62 31.36 8.59 59.22 8.57 87.14 31.5 109.96 59.29 109.94 87.21 109.93 110.09 86.99 109.91 59.27Z" fill="#FFFFFF"/><path d="M40.61 59.26C40.61 51.16 40.61 43.05 40.61 34.95 40.61 34.58 40.6 34.22 40.63 33.85 40.85 31.77 42.3 31.01 44.13 32.05 46.49 33.39 48.82 34.76 51.17 36.12 63.28 43.11 75.38 50.1 87.49 57.09 87.62 57.17 87.76 57.24 87.88 57.32 89.65 58.5 89.66 60.09 87.86 61.23 86.7 61.96 85.49 62.61 84.31 63.3 70.99 70.99 57.67 78.68 44.35 86.37 43.9 86.63 43.43 86.86 42.91 86.91 41.89 87.03 41.12 86.54 40.81 85.56 40.62 84.97 40.61 84.36 40.61 83.75 40.61 75.58 40.61 67.42 40.61 59.26Z" fill="#FFFFFF"/></g></svg>